<mxfile host="Electron" agent="Mozilla/5.0 (Windows NT 10.0; Win64; x64) AppleWebKit/537.36 (KHTML, like Gecko) draw.io/27.0.9 Chrome/134.0.6998.205 Electron/35.4.0 Safari/537.36" version="27.0.9">
  <diagram name="Page-1" id="b5xZ58LGsUO_Us6YMfDL">
    <mxGraphModel dx="1042" dy="626" grid="1" gridSize="10" guides="1" tooltips="1" connect="1" arrows="1" fold="1" page="1" pageScale="1" pageWidth="850" pageHeight="1100" background="#ffffff" math="0" shadow="0">
      <root>
        <mxCell id="0" />
        <mxCell id="1" parent="0" />
        <mxCell id="dRaUyygKA70EmgN9Tbzp-1" value="&lt;font style=&quot;font-size: 32px;&quot;&gt;DATA FLOW DIAGRAM&lt;/font&gt;" style="text;html=1;align=center;verticalAlign=middle;whiteSpace=wrap;rounded=0;fillColor=default;" parent="1" vertex="1">
          <mxGeometry width="850" height="40" as="geometry" />
        </mxCell>
        <mxCell id="dRaUyygKA70EmgN9Tbzp-2" value="&#xa;&lt;b style=&quot;forced-color-adjust: none; box-shadow: none !important; color: rgb(255, 255, 255); font-family: Helvetica; font-size: 12px; font-style: normal; font-variant-ligatures: normal; font-variant-caps: normal; letter-spacing: normal; orphans: 2; text-align: center; text-indent: 0px; text-transform: none; widows: 2; word-spacing: 0px; -webkit-text-stroke-width: 0px; white-space: nowrap; text-decoration-thickness: initial; text-decoration-style: initial; text-decoration-color: initial;&quot;&gt;CRM&lt;/b&gt;&#xa;&#xa;" style="rounded=0;whiteSpace=wrap;html=1;fillColor=none;dashed=1;strokeColor=#000000;" parent="1" vertex="1">
          <mxGeometry x="40" y="180" width="120" height="440" as="geometry" />
        </mxCell>
        <mxCell id="dRaUyygKA70EmgN9Tbzp-3" value="SOURCES" style="rounded=1;whiteSpace=wrap;html=1;" parent="1" vertex="1">
          <mxGeometry x="50" y="150" width="100" height="50" as="geometry" />
        </mxCell>
        <mxCell id="dRaUyygKA70EmgN9Tbzp-17" style="edgeStyle=orthogonalEdgeStyle;rounded=0;orthogonalLoop=1;jettySize=auto;html=1;entryX=0;entryY=0.5;entryDx=0;entryDy=0;exitX=1.025;exitY=0.515;exitDx=0;exitDy=0;exitPerimeter=0;strokeColor=#000000;strokeWidth=2;" parent="1" source="dRaUyygKA70EmgN9Tbzp-4" target="dRaUyygKA70EmgN9Tbzp-10" edge="1">
          <mxGeometry relative="1" as="geometry" />
        </mxCell>
        <mxCell id="dRaUyygKA70EmgN9Tbzp-19" value="" style="edgeStyle=orthogonalEdgeStyle;rounded=0;orthogonalLoop=1;jettySize=auto;html=1;exitX=0;exitY=0.5;exitDx=0;exitDy=0;fillColor=#f8cecc;gradientColor=#ea6b66;strokeColor=#b85450;fontColor=#000000;" parent="1" source="dRaUyygKA70EmgN9Tbzp-13" target="dRaUyygKA70EmgN9Tbzp-13" edge="1">
          <mxGeometry relative="1" as="geometry" />
        </mxCell>
        <mxCell id="dRaUyygKA70EmgN9Tbzp-21" style="edgeStyle=orthogonalEdgeStyle;rounded=0;orthogonalLoop=1;jettySize=auto;html=1;entryX=0;entryY=0.5;entryDx=0;entryDy=0;strokeColor=#000000;strokeWidth=2;" parent="1" source="dRaUyygKA70EmgN9Tbzp-4" target="dRaUyygKA70EmgN9Tbzp-12" edge="1">
          <mxGeometry relative="1" as="geometry" />
        </mxCell>
        <mxCell id="dRaUyygKA70EmgN9Tbzp-23" style="edgeStyle=orthogonalEdgeStyle;rounded=0;orthogonalLoop=1;jettySize=auto;html=1;entryX=0;entryY=0.5;entryDx=0;entryDy=0;strokeColor=#000000;strokeWidth=2;" parent="1" source="dRaUyygKA70EmgN9Tbzp-4" target="dRaUyygKA70EmgN9Tbzp-13" edge="1">
          <mxGeometry relative="1" as="geometry" />
        </mxCell>
        <mxCell id="dRaUyygKA70EmgN9Tbzp-4" value="&lt;b&gt;CRM&lt;/b&gt;" style="image;aspect=fixed;html=1;points=[];align=center;fontSize=12;image=img/lib/azure2/general/Folder_Blank.svg;" parent="1" vertex="1">
          <mxGeometry x="66" y="244.03" width="64" height="51.94" as="geometry" />
        </mxCell>
        <mxCell id="dRaUyygKA70EmgN9Tbzp-7" value="" style="edgeStyle=orthogonalEdgeStyle;rounded=0;orthogonalLoop=1;jettySize=auto;html=1;" parent="1" source="dRaUyygKA70EmgN9Tbzp-5" edge="1">
          <mxGeometry relative="1" as="geometry">
            <mxPoint x="98" y="531.94" as="targetPoint" />
          </mxGeometry>
        </mxCell>
        <mxCell id="dRaUyygKA70EmgN9Tbzp-24" value="" style="edgeStyle=orthogonalEdgeStyle;rounded=0;orthogonalLoop=1;jettySize=auto;html=1;" parent="1" source="dRaUyygKA70EmgN9Tbzp-5" target="dRaUyygKA70EmgN9Tbzp-16" edge="1">
          <mxGeometry relative="1" as="geometry" />
        </mxCell>
        <mxCell id="dRaUyygKA70EmgN9Tbzp-25" style="edgeStyle=orthogonalEdgeStyle;rounded=0;orthogonalLoop=1;jettySize=auto;html=1;entryX=0;entryY=0.5;entryDx=0;entryDy=0;strokeColor=#000000;strokeWidth=2;" parent="1" source="dRaUyygKA70EmgN9Tbzp-5" target="dRaUyygKA70EmgN9Tbzp-14" edge="1">
          <mxGeometry relative="1" as="geometry" />
        </mxCell>
        <mxCell id="dRaUyygKA70EmgN9Tbzp-26" style="edgeStyle=orthogonalEdgeStyle;rounded=0;orthogonalLoop=1;jettySize=auto;html=1;entryX=0;entryY=0.5;entryDx=0;entryDy=0;strokeColor=#000000;strokeWidth=2;" parent="1" source="dRaUyygKA70EmgN9Tbzp-5" target="dRaUyygKA70EmgN9Tbzp-16" edge="1">
          <mxGeometry relative="1" as="geometry" />
        </mxCell>
        <mxCell id="dRaUyygKA70EmgN9Tbzp-27" style="edgeStyle=orthogonalEdgeStyle;rounded=0;orthogonalLoop=1;jettySize=auto;html=1;entryX=0;entryY=0.5;entryDx=0;entryDy=0;strokeColor=#000000;strokeWidth=2;" parent="1" source="dRaUyygKA70EmgN9Tbzp-5" target="dRaUyygKA70EmgN9Tbzp-15" edge="1">
          <mxGeometry relative="1" as="geometry" />
        </mxCell>
        <mxCell id="dRaUyygKA70EmgN9Tbzp-5" value="&lt;b&gt;ERP&lt;/b&gt;" style="image;aspect=fixed;html=1;points=[];align=center;fontSize=12;image=img/lib/azure2/general/Folder_Blank.svg;" parent="1" vertex="1">
          <mxGeometry x="66" y="445" width="61.62" height="50" as="geometry" />
        </mxCell>
        <mxCell id="dRaUyygKA70EmgN9Tbzp-8" value="" style="rounded=0;whiteSpace=wrap;html=1;fillColor=none;strokeColor=#b85450;gradientColor=#ea6b66;strokeWidth=3;" parent="1" vertex="1">
          <mxGeometry x="190" y="180" width="170" height="440" as="geometry" />
        </mxCell>
        <mxCell id="dRaUyygKA70EmgN9Tbzp-9" value="&lt;font style=&quot;font-size: 18px;&quot;&gt;BRONZE LAYER&lt;/font&gt;" style="rounded=1;whiteSpace=wrap;html=1;fillColor=#f8cecc;strokeColor=#b85450;gradientColor=#ea6b66;fontColor=#000000;" parent="1" vertex="1">
          <mxGeometry x="200" y="110" width="160" height="60" as="geometry" />
        </mxCell>
        <mxCell id="ae0StOXgy1HKDPam0gJQ-16" style="edgeStyle=orthogonalEdgeStyle;rounded=0;orthogonalLoop=1;jettySize=auto;html=1;exitX=1;exitY=0.5;exitDx=0;exitDy=0;strokeColor=#000000;entryX=0;entryY=0.5;entryDx=0;entryDy=0;strokeWidth=2;" parent="1" source="dRaUyygKA70EmgN9Tbzp-10" target="ae0StOXgy1HKDPam0gJQ-10" edge="1">
          <mxGeometry relative="1" as="geometry" />
        </mxCell>
        <mxCell id="dRaUyygKA70EmgN9Tbzp-10" value="crm_sales_details" style="rounded=1;whiteSpace=wrap;html=1;fillColor=#f8cecc;strokeColor=#b85450;gradientColor=#ea6b66;fontColor=#000000;" parent="1" vertex="1">
          <mxGeometry x="210" y="200" width="140" height="40" as="geometry" />
        </mxCell>
        <mxCell id="ae0StOXgy1HKDPam0gJQ-18" style="edgeStyle=orthogonalEdgeStyle;rounded=0;orthogonalLoop=1;jettySize=auto;html=1;exitX=1;exitY=0.5;exitDx=0;exitDy=0;entryX=0;entryY=0.5;entryDx=0;entryDy=0;strokeColor=#000000;strokeWidth=2;" parent="1" source="dRaUyygKA70EmgN9Tbzp-12" target="ae0StOXgy1HKDPam0gJQ-11" edge="1">
          <mxGeometry relative="1" as="geometry" />
        </mxCell>
        <mxCell id="dRaUyygKA70EmgN9Tbzp-12" value="crm_prd_info" style="rounded=1;whiteSpace=wrap;html=1;fillColor=#f8cecc;strokeColor=#b85450;gradientColor=#ea6b66;fontColor=#000000;" parent="1" vertex="1">
          <mxGeometry x="210" y="300" width="140" height="40" as="geometry" />
        </mxCell>
        <mxCell id="ae0StOXgy1HKDPam0gJQ-17" style="edgeStyle=orthogonalEdgeStyle;rounded=0;orthogonalLoop=1;jettySize=auto;html=1;exitX=1;exitY=0.5;exitDx=0;exitDy=0;strokeColor=#000000;strokeWidth=2;" parent="1" source="dRaUyygKA70EmgN9Tbzp-13" target="ae0StOXgy1HKDPam0gJQ-12" edge="1">
          <mxGeometry relative="1" as="geometry" />
        </mxCell>
        <mxCell id="dRaUyygKA70EmgN9Tbzp-13" value="crm_cust_info" style="rounded=1;whiteSpace=wrap;html=1;fillColor=#f8cecc;strokeColor=#b85450;gradientColor=#ea6b66;fontColor=#000000;" parent="1" vertex="1">
          <mxGeometry x="210" y="250" width="140" height="40" as="geometry" />
        </mxCell>
        <mxCell id="dRaUyygKA70EmgN9Tbzp-14" value="erp_cust_az12" style="rounded=1;whiteSpace=wrap;html=1;fillColor=#f8cecc;strokeColor=#b85450;gradientColor=#ea6b66;fontColor=#000000;" parent="1" vertex="1">
          <mxGeometry x="210" y="400" width="140" height="40" as="geometry" />
        </mxCell>
        <mxCell id="ae0StOXgy1HKDPam0gJQ-21" value="" style="edgeStyle=orthogonalEdgeStyle;rounded=0;orthogonalLoop=1;jettySize=auto;html=1;" parent="1" source="dRaUyygKA70EmgN9Tbzp-15" target="ae0StOXgy1HKDPam0gJQ-15" edge="1">
          <mxGeometry relative="1" as="geometry" />
        </mxCell>
        <mxCell id="ae0StOXgy1HKDPam0gJQ-22" style="edgeStyle=orthogonalEdgeStyle;rounded=0;orthogonalLoop=1;jettySize=auto;html=1;entryX=0;entryY=0.5;entryDx=0;entryDy=0;strokeColor=#000000;strokeWidth=2;" parent="1" source="dRaUyygKA70EmgN9Tbzp-15" target="ae0StOXgy1HKDPam0gJQ-14" edge="1">
          <mxGeometry relative="1" as="geometry" />
        </mxCell>
        <mxCell id="dRaUyygKA70EmgN9Tbzp-15" value="erp_px_cat_g1v2" style="rounded=1;whiteSpace=wrap;html=1;fillColor=#f8cecc;strokeColor=#b85450;gradientColor=#ea6b66;fontColor=#000000;" parent="1" vertex="1">
          <mxGeometry x="210" y="500" width="140" height="40" as="geometry" />
        </mxCell>
        <mxCell id="ae0StOXgy1HKDPam0gJQ-20" style="edgeStyle=orthogonalEdgeStyle;rounded=0;orthogonalLoop=1;jettySize=auto;html=1;exitX=1;exitY=0.5;exitDx=0;exitDy=0;entryX=0;entryY=0.5;entryDx=0;entryDy=0;strokeColor=#000000;strokeWidth=2;" parent="1" source="dRaUyygKA70EmgN9Tbzp-16" target="ae0StOXgy1HKDPam0gJQ-15" edge="1">
          <mxGeometry relative="1" as="geometry" />
        </mxCell>
        <mxCell id="dRaUyygKA70EmgN9Tbzp-16" value="erp_loc_a101" style="rounded=1;whiteSpace=wrap;html=1;fillColor=#f8cecc;strokeColor=#b85450;gradientColor=#ea6b66;fontColor=#000000;" parent="1" vertex="1">
          <mxGeometry x="210" y="450" width="140" height="40" as="geometry" />
        </mxCell>
        <mxCell id="ae0StOXgy1HKDPam0gJQ-8" value="" style="rounded=0;whiteSpace=wrap;html=1;fillColor=none;strokeColor=#666666;gradientColor=#b3b3b3;strokeWidth=3;" parent="1" vertex="1">
          <mxGeometry x="420" y="180" width="170" height="440" as="geometry" />
        </mxCell>
        <mxCell id="ae0StOXgy1HKDPam0gJQ-9" value="&lt;font style=&quot;font-size: 18px;&quot;&gt;SILVER LAYER&lt;/font&gt;" style="rounded=1;whiteSpace=wrap;html=1;fillColor=#f5f5f5;strokeColor=#666666;gradientColor=#b3b3b3;fontColor=#000000;" parent="1" vertex="1">
          <mxGeometry x="430" y="110" width="160" height="60" as="geometry" />
        </mxCell>
        <mxCell id="ae0StOXgy1HKDPam0gJQ-10" value="crm_sales_details" style="rounded=1;whiteSpace=wrap;html=1;fillColor=#f5f5f5;strokeColor=#666666;gradientColor=#b3b3b3;fontColor=#000000;" parent="1" vertex="1">
          <mxGeometry x="440" y="200" width="140" height="40" as="geometry" />
        </mxCell>
        <mxCell id="ae0StOXgy1HKDPam0gJQ-11" value="crm_prd_info" style="rounded=1;whiteSpace=wrap;html=1;fillColor=#f5f5f5;strokeColor=#666666;gradientColor=#b3b3b3;fontColor=#000000;" parent="1" vertex="1">
          <mxGeometry x="440" y="300" width="140" height="40" as="geometry" />
        </mxCell>
        <mxCell id="ae0StOXgy1HKDPam0gJQ-12" value="crm_cust_info" style="rounded=1;whiteSpace=wrap;html=1;fillColor=#f5f5f5;strokeColor=#666666;gradientColor=#b3b3b3;fontColor=#000000;" parent="1" vertex="1">
          <mxGeometry x="440" y="250" width="140" height="40" as="geometry" />
        </mxCell>
        <mxCell id="ae0StOXgy1HKDPam0gJQ-13" value="erp_cust_az12" style="rounded=1;whiteSpace=wrap;html=1;fillColor=#f5f5f5;strokeColor=#666666;gradientColor=#b3b3b3;fontColor=#000000;" parent="1" vertex="1">
          <mxGeometry x="440" y="400" width="140" height="40" as="geometry" />
        </mxCell>
        <mxCell id="ae0StOXgy1HKDPam0gJQ-14" value="erp_px_cat_g1v2" style="rounded=1;whiteSpace=wrap;html=1;fillColor=#f5f5f5;strokeColor=#666666;gradientColor=#b3b3b3;fontColor=#000000;" parent="1" vertex="1">
          <mxGeometry x="440" y="500" width="140" height="40" as="geometry" />
        </mxCell>
        <mxCell id="ae0StOXgy1HKDPam0gJQ-15" value="erp_loc_a101" style="rounded=1;whiteSpace=wrap;html=1;fillColor=#f5f5f5;strokeColor=#666666;gradientColor=#b3b3b3;fontColor=#000000;" parent="1" vertex="1">
          <mxGeometry x="440" y="450" width="140" height="40" as="geometry" />
        </mxCell>
        <mxCell id="ae0StOXgy1HKDPam0gJQ-19" style="edgeStyle=orthogonalEdgeStyle;rounded=0;orthogonalLoop=1;jettySize=auto;html=1;strokeColor=#000000;strokeWidth=2;" parent="1" source="dRaUyygKA70EmgN9Tbzp-14" edge="1">
          <mxGeometry relative="1" as="geometry">
            <mxPoint x="360" y="420" as="sourcePoint" />
            <mxPoint x="440" y="420" as="targetPoint" />
          </mxGeometry>
        </mxCell>
        <mxCell id="_H0FrBvBGI-IVgeQzY8Z-1" value="&lt;font style=&quot;font-size: 18px;&quot;&gt;GOLD LAYER&lt;/font&gt;" style="rounded=1;whiteSpace=wrap;html=1;fillColor=#ffcd28;strokeColor=#d79b00;gradientColor=#ffa500;fontColor=#000000;" vertex="1" parent="1">
          <mxGeometry x="650" y="110" width="160" height="60" as="geometry" />
        </mxCell>
        <mxCell id="_H0FrBvBGI-IVgeQzY8Z-8" value="" style="rounded=0;whiteSpace=wrap;html=1;fillColor=none;strokeColor=#d79b00;gradientColor=#ffa500;strokeWidth=3;" vertex="1" parent="1">
          <mxGeometry x="650" y="180" width="160" height="440" as="geometry" />
        </mxCell>
        <mxCell id="_H0FrBvBGI-IVgeQzY8Z-9" value="fact_sales" style="rounded=1;whiteSpace=wrap;html=1;fillColor=#ffcd28;strokeColor=#d79b00;gradientColor=#ffa500;fontColor=#000000;" vertex="1" parent="1">
          <mxGeometry x="660" y="240" width="140" height="40" as="geometry" />
        </mxCell>
        <mxCell id="_H0FrBvBGI-IVgeQzY8Z-10" value="dim_products" style="rounded=1;whiteSpace=wrap;html=1;fillColor=#ffcd28;strokeColor=#d79b00;gradientColor=#ffa500;fontColor=#000000;" vertex="1" parent="1">
          <mxGeometry x="670" y="480" width="140" height="40" as="geometry" />
        </mxCell>
        <mxCell id="_H0FrBvBGI-IVgeQzY8Z-11" value="dim_customers" style="rounded=1;whiteSpace=wrap;html=1;fillColor=#ffcd28;strokeColor=#d79b00;gradientColor=#ffa500;fontColor=#000000;" vertex="1" parent="1">
          <mxGeometry x="660" y="340" width="140" height="40" as="geometry" />
        </mxCell>
        <mxCell id="_H0FrBvBGI-IVgeQzY8Z-13" style="edgeStyle=orthogonalEdgeStyle;rounded=0;orthogonalLoop=1;jettySize=auto;html=1;exitX=1;exitY=0.5;exitDx=0;exitDy=0;strokeColor=#000000;entryX=0;entryY=0.5;entryDx=0;entryDy=0;strokeWidth=2;" edge="1" parent="1" source="ae0StOXgy1HKDPam0gJQ-10" target="_H0FrBvBGI-IVgeQzY8Z-9">
          <mxGeometry relative="1" as="geometry">
            <mxPoint x="480" y="270" as="sourcePoint" />
            <mxPoint x="570" y="270" as="targetPoint" />
          </mxGeometry>
        </mxCell>
        <mxCell id="_H0FrBvBGI-IVgeQzY8Z-14" style="edgeStyle=orthogonalEdgeStyle;rounded=0;orthogonalLoop=1;jettySize=auto;html=1;exitX=1;exitY=0.5;exitDx=0;exitDy=0;strokeColor=#CC0000;entryX=0;entryY=0.5;entryDx=0;entryDy=0;strokeWidth=2;" edge="1" parent="1" source="ae0StOXgy1HKDPam0gJQ-12" target="_H0FrBvBGI-IVgeQzY8Z-11">
          <mxGeometry relative="1" as="geometry">
            <mxPoint x="610" y="250" as="sourcePoint" />
            <mxPoint x="690" y="290" as="targetPoint" />
          </mxGeometry>
        </mxCell>
        <mxCell id="_H0FrBvBGI-IVgeQzY8Z-15" style="edgeStyle=orthogonalEdgeStyle;rounded=0;orthogonalLoop=1;jettySize=auto;html=1;exitX=1;exitY=0.5;exitDx=0;exitDy=0;strokeColor=#CC0000;entryX=0;entryY=0.5;entryDx=0;entryDy=0;strokeWidth=2;" edge="1" parent="1" source="ae0StOXgy1HKDPam0gJQ-13" target="_H0FrBvBGI-IVgeQzY8Z-11">
          <mxGeometry relative="1" as="geometry">
            <mxPoint x="640" y="400" as="sourcePoint" />
            <mxPoint x="720" y="440" as="targetPoint" />
          </mxGeometry>
        </mxCell>
        <mxCell id="_H0FrBvBGI-IVgeQzY8Z-16" style="edgeStyle=orthogonalEdgeStyle;rounded=0;orthogonalLoop=1;jettySize=auto;html=1;exitX=1;exitY=0.5;exitDx=0;exitDy=0;strokeColor=#CC0000;entryX=0;entryY=0.5;entryDx=0;entryDy=0;strokeWidth=2;" edge="1" parent="1" source="ae0StOXgy1HKDPam0gJQ-15" target="_H0FrBvBGI-IVgeQzY8Z-11">
          <mxGeometry relative="1" as="geometry">
            <mxPoint x="610" y="420" as="sourcePoint" />
            <mxPoint x="690" y="460" as="targetPoint" />
          </mxGeometry>
        </mxCell>
        <mxCell id="_H0FrBvBGI-IVgeQzY8Z-18" style="edgeStyle=orthogonalEdgeStyle;rounded=0;orthogonalLoop=1;jettySize=auto;html=1;exitX=1;exitY=0.5;exitDx=0;exitDy=0;strokeColor=#0000CC;entryX=0;entryY=0.5;entryDx=0;entryDy=0;strokeWidth=2;jumpStyle=arc;" edge="1" parent="1" source="ae0StOXgy1HKDPam0gJQ-11" target="_H0FrBvBGI-IVgeQzY8Z-10">
          <mxGeometry relative="1" as="geometry">
            <mxPoint x="640" y="320" as="sourcePoint" />
            <mxPoint x="720" y="360" as="targetPoint" />
          </mxGeometry>
        </mxCell>
        <mxCell id="_H0FrBvBGI-IVgeQzY8Z-19" style="edgeStyle=orthogonalEdgeStyle;rounded=0;orthogonalLoop=1;jettySize=auto;html=1;exitX=1;exitY=0.5;exitDx=0;exitDy=0;strokeColor=#0000CC;entryX=0;entryY=0.5;entryDx=0;entryDy=0;strokeWidth=2;" edge="1" parent="1" source="ae0StOXgy1HKDPam0gJQ-14" target="_H0FrBvBGI-IVgeQzY8Z-10">
          <mxGeometry relative="1" as="geometry">
            <mxPoint x="620" y="450" as="sourcePoint" />
            <mxPoint x="700" y="490" as="targetPoint" />
            <Array as="points">
              <mxPoint x="600" y="520" />
              <mxPoint x="600" y="500" />
            </Array>
          </mxGeometry>
        </mxCell>
      </root>
    </mxGraphModel>
  </diagram>
</mxfile>
